<svg width="27" height="31" viewBox="0 0 27 31" fill="none" xmlns="http://www.w3.org/2000/svg">
<path d="M26.1137 15.2396V15.2373L26.1074 15.2297C26.08 15.1645 26.0405 15.105 25.9911 15.0544L19.2053 8.31485C19.1528 8.26276 19.0906 8.22152 19.0222 8.19347C18.9538 8.16542 18.8806 8.15111 18.8067 8.15137C18.7328 8.15163 18.6596 8.16644 18.5914 8.19496C18.5233 8.22348 18.4614 8.26516 18.4093 8.3176C18.3572 8.37005 18.3159 8.43224 18.2879 8.50063C18.2598 8.56902 18.2455 8.64226 18.2458 8.71617C18.246 8.79009 18.2609 8.86323 18.2894 8.93142C18.3179 8.99961 18.3596 9.06151 18.412 9.1136L24.2293 14.8914H5.34436C5.19518 14.8914 5.0521 14.9506 4.94661 15.0561C4.84112 15.1616 4.78186 15.3047 4.78186 15.4539C4.78186 15.6031 4.84112 15.7461 4.94661 15.8516C5.0521 15.9571 5.19518 16.0164 5.34436 16.0164H24.2436L18.4093 21.8929C18.3041 21.9988 18.2453 22.1422 18.2458 22.2915C18.2464 22.4408 18.3062 22.5837 18.4121 22.6889C18.518 22.7941 18.6614 22.8529 18.8106 22.8524C18.9599 22.8519 19.1029 22.7921 19.2081 22.6862L25.9918 15.8516L25.9935 15.8504C26.0613 15.7786 26.1083 15.6896 26.1294 15.593C26.135 15.5714 26.1391 15.5495 26.1419 15.5273C26.1579 15.4306 26.1482 15.3313 26.1137 15.2396Z" fill="white"/>
<path d="M3.72875 15.4537C3.72875 15.0061 3.90654 14.5769 4.223 14.2605C4.53947 13.944 4.9687 13.7662 5.41625 13.7662H12.6931V0.925781C12.6931 0.776597 12.6338 0.633523 12.5283 0.528034C12.4228 0.422545 12.2798 0.363281 12.1306 0.363281H1.96936C1.52195 0.363758 1.09301 0.5417 0.776644 0.858065C0.460279 1.17443 0.282337 1.60337 0.28186 2.05078V29.0508C0.282337 29.4982 0.460279 29.9271 0.776644 30.2435C1.09301 30.5599 1.52195 30.7378 1.96936 30.7383H12.1306C12.2798 30.7383 12.4228 30.679 12.5283 30.5735C12.6338 30.468 12.6931 30.325 12.6931 30.1758V17.1412H5.41625C4.9687 17.1412 4.53947 16.9634 4.223 16.6469C3.90654 16.3305 3.72875 15.9012 3.72875 15.4537Z" fill="white"/>
</svg>
