<svg width="24" height="24" viewBox="0 0 24 24" fill="none" xmlns="http://www.w3.org/2000/svg">
<path d="M11.8289 4.84944C11.8289 4.70026 11.8882 4.55718 11.9937 4.45169C12.0992 4.3462 12.2423 4.28694 12.3914 4.28694H19.4677C19.6169 4.28694 19.7599 4.3462 19.8654 4.45169C19.9709 4.55718 20.0302 4.70026 20.0302 4.84944C20.0302 4.99863 19.9709 5.1417 19.8654 5.24719C19.7599 5.35268 19.6169 5.41194 19.4677 5.41194H12.3914C12.2423 5.41194 12.0992 5.35268 11.9937 5.24719C11.8882 5.1417 11.8289 4.99863 11.8289 4.84944ZM19.4677 6.66482H10.8914C10.7423 6.66482 10.5992 6.72408 10.4937 6.82957C10.3882 6.93506 10.3289 7.07813 10.3289 7.22732C10.3289 7.3765 10.3882 7.51957 10.4937 7.62506C10.5992 7.73055 10.7423 7.78982 10.8914 7.78982H19.4677C19.6169 7.78982 19.7599 7.73055 19.8654 7.62506C19.9709 7.51957 20.0302 7.3765 20.0302 7.22732C20.0302 7.07813 19.9709 6.93506 19.8654 6.82957C19.7599 6.72408 19.6169 6.66482 19.4677 6.66482ZM19.4677 10.6874H12.3914C12.2423 10.6874 12.0992 10.7467 11.9937 10.8522C11.8882 10.9577 11.8289 11.1008 11.8289 11.2499C11.8289 11.3991 11.8882 11.5422 11.9937 11.6477C12.0992 11.7532 12.2423 11.8124 12.3914 11.8124H19.4677C19.6169 11.8124 19.7599 11.7532 19.8654 11.6477C19.9709 11.5422 20.0302 11.3991 20.0302 11.2499C20.0302 11.1008 19.9709 10.9577 19.8654 10.8522C19.7599 10.7467 19.6169 10.6874 19.4677 10.6874ZM19.4677 13.0661H10.8914C10.7423 13.0661 10.5992 13.1253 10.4937 13.2308C10.3882 13.3363 10.3289 13.4794 10.3289 13.6286C10.3289 13.7778 10.3882 13.9208 10.4937 14.0263C10.5992 14.1318 10.7423 14.1911 10.8914 14.1911H19.4677C19.6169 14.1911 19.7599 14.1318 19.8654 14.0263C19.9709 13.9208 20.0302 13.7778 20.0302 13.6286C20.0302 13.4794 19.9709 13.3363 19.8654 13.2308C19.7599 13.1253 19.6169 13.0661 19.4677 13.0661ZM7.78869 9.80994H4.53369C4.38451 9.80994 4.24143 9.8692 4.13594 9.97469C4.03045 10.0802 3.97119 10.2233 3.97119 10.3724V13.6274C3.97119 13.7766 4.03045 13.9197 4.13594 14.0252C4.24143 14.1307 4.38451 14.1899 4.53369 14.1899H7.78869C7.93788 14.1899 8.08095 14.1307 8.18644 14.0252C8.29193 13.9197 8.35119 13.7766 8.35119 13.6274V10.3724C8.35119 10.2233 8.29193 10.0802 8.18644 9.97469C8.08095 9.8692 7.93788 9.80994 7.78869 9.80994ZM7.78869 3.40869H4.53369C4.38451 3.40869 4.24143 3.46795 4.13594 3.57344C4.03045 3.67893 3.97119 3.82201 3.97119 3.97119V7.22619C3.97119 7.37538 4.03045 7.51845 4.13594 7.62394C4.24143 7.72943 4.38451 7.78869 4.53369 7.78869H7.78869C7.93788 7.78869 8.08095 7.72943 8.18644 7.62394C8.29193 7.51845 8.35119 7.37538 8.35119 7.22619V3.97119C8.35119 3.82201 8.29193 3.67893 8.18644 3.57344C8.08095 3.46795 7.93788 3.40869 7.78869 3.40869ZM7.78869 16.2112H4.53369C4.38451 16.2112 4.24143 16.2705 4.13594 16.3759C4.03045 16.4814 3.97119 16.6245 3.97119 16.7737V20.0287C3.97119 20.1779 4.03045 20.3209 4.13594 20.4264C4.24143 20.5319 4.38451 20.5912 4.53369 20.5912H7.78869C7.93788 20.5912 8.08095 20.5319 8.18644 20.4264C8.29193 20.3209 8.35119 20.1779 8.35119 20.0287V16.7737C8.35119 16.6245 8.29193 16.4814 8.18644 16.3759C8.08095 16.2705 7.93788 16.2112 7.78869 16.2112ZM19.4677 17.0879H12.3914C12.2423 17.0879 12.0992 17.1472 11.9937 17.2527C11.8882 17.3582 11.8289 17.5013 11.8289 17.6504C11.8289 17.7996 11.8882 17.9427 11.9937 18.0482C12.0992 18.1537 12.2423 18.2129 12.3914 18.2129H19.4677C19.6169 18.2129 19.7599 18.1537 19.8654 18.0482C19.9709 17.9427 20.0302 17.7996 20.0302 17.6504C20.0302 17.5013 19.9709 17.3582 19.8654 17.2527C19.7599 17.1472 19.6169 17.0879 19.4677 17.0879ZM19.4677 19.4666H10.8914C10.7423 19.4666 10.5992 19.5258 10.4937 19.6313C10.3882 19.7368 10.3289 19.8799 10.3289 20.0291C10.3289 20.1783 10.3882 20.3213 10.4937 20.4268C10.5992 20.5323 10.7423 20.5916 10.8914 20.5916H19.4677C19.6169 20.5916 19.7599 20.5323 19.8654 20.4268C19.9709 20.3213 20.0302 20.1783 20.0302 20.0291C20.0302 19.8799 19.9709 19.7368 19.8654 19.6313C19.7599 19.5258 19.6169 19.4666 19.4677 19.4666Z" fill="#222222"/>
</svg>
