<svg width="36" height="36" viewBox="0 0 36 36" fill="none" xmlns="http://www.w3.org/2000/svg">
<path d="M18 15C19.5913 15 21.1174 14.3679 22.2426 13.2426C23.3679 12.1174 24 10.5913 24 9C24 7.4087 23.3679 5.88258 22.2426 4.75736C21.1174 3.63214 19.5913 3 18 3C16.4087 3 14.8826 3.63214 13.7574 4.75736C12.6321 5.88258 12 7.4087 12 9C12 10.5913 12.6321 12.1174 13.7574 13.2426C14.8826 14.3679 16.4087 15 18 15ZM8.25 19.5C9.24456 19.5 10.1984 19.1049 10.9017 18.4017C11.6049 17.6984 12 16.7446 12 15.75C12 14.7554 11.6049 13.8016 10.9017 13.0983C10.1984 12.3951 9.24456 12 8.25 12C7.25544 12 6.30161 12.3951 5.59835 13.0983C4.89509 13.8016 4.5 14.7554 4.5 15.75C4.5 16.7446 4.89509 17.6984 5.59835 18.4017C6.30161 19.1049 7.25544 19.5 8.25 19.5ZM31.5 15.75C31.5 16.7446 31.1049 17.6984 30.4016 18.4017C29.6984 19.1049 28.7446 19.5 27.75 19.5C26.7554 19.5 25.8016 19.1049 25.0984 18.4017C24.3951 17.6984 24 16.7446 24 15.75C24 14.7554 24.3951 13.8016 25.0984 13.0983C25.8016 12.3951 26.7554 12 27.75 12C28.7446 12 29.6984 12.3951 30.4016 13.0983C31.1049 13.8016 31.5 14.7554 31.5 15.75ZM18 16.5C19.9891 16.5 21.8968 17.2902 23.3033 18.6967C24.7098 20.1032 25.5 22.0109 25.5 24V33H10.5V24C10.5 22.0109 11.2902 20.1032 12.6967 18.6967C14.1032 17.2902 16.0109 16.5 18 16.5ZM7.5 24C7.5 22.9605 7.65 21.957 7.932 21.009L7.677 21.03C6.39132 21.1712 5.203 21.782 4.33989 22.7453C3.47679 23.7086 2.99966 24.9566 3 26.25V33H7.5V24ZM33 33V26.25C33.0002 24.9126 32.4899 23.6255 31.5733 22.6515C30.6567 21.6775 29.403 21.09 28.068 21.009C28.3485 21.957 28.5 22.9605 28.5 24V33H33Z" fill="white"/>
</svg>
