<svg width="18" height="18" viewBox="0 0 18 18" fill="none" xmlns="http://www.w3.org/2000/svg">
<path d="M8.82894 1.84944C8.82894 1.70026 8.8882 1.55718 8.99369 1.45169C9.09918 1.3462 9.24226 1.28694 9.39144 1.28694H16.4677C16.6169 1.28694 16.7599 1.3462 16.8654 1.45169C16.9709 1.55718 17.0302 1.70026 17.0302 1.84944C17.0302 1.99863 16.9709 2.1417 16.8654 2.24719C16.7599 2.35268 16.6169 2.41194 16.4677 2.41194H9.39144C9.24226 2.41194 9.09918 2.35268 8.99369 2.24719C8.8882 2.1417 8.82894 1.99863 8.82894 1.84944ZM16.4677 3.66482H7.89144C7.74226 3.66482 7.59918 3.72408 7.49369 3.82957C7.3882 3.93506 7.32894 4.07813 7.32894 4.22732C7.32894 4.3765 7.3882 4.51957 7.49369 4.62506C7.59918 4.73055 7.74226 4.78982 7.89144 4.78982H16.4677C16.6169 4.78982 16.7599 4.73055 16.8654 4.62506C16.9709 4.51957 17.0302 4.3765 17.0302 4.22732C17.0302 4.07813 16.9709 3.93506 16.8654 3.82957C16.7599 3.72408 16.6169 3.66482 16.4677 3.66482ZM16.4677 7.68744H9.39144C9.24226 7.68744 9.09918 7.74671 8.99369 7.85219C8.8882 7.95768 8.82894 8.10076 8.82894 8.24994C8.82894 8.39913 8.8882 8.5422 8.99369 8.64769C9.09918 8.75318 9.24226 8.81244 9.39144 8.81244H16.4677C16.6169 8.81244 16.7599 8.75318 16.8654 8.64769C16.9709 8.5422 17.0302 8.39913 17.0302 8.24994C17.0302 8.10076 16.9709 7.95768 16.8654 7.85219C16.7599 7.74671 16.6169 7.68744 16.4677 7.68744ZM16.4677 10.0661H7.89144C7.74226 10.0661 7.59918 10.1253 7.49369 10.2308C7.3882 10.3363 7.32894 10.4794 7.32894 10.6286C7.32894 10.7778 7.3882 10.9208 7.49369 11.0263C7.59918 11.1318 7.74226 11.1911 7.89144 11.1911H16.4677C16.6169 11.1911 16.7599 11.1318 16.8654 11.0263C16.9709 10.9208 17.0302 10.7778 17.0302 10.6286C17.0302 10.4794 16.9709 10.3363 16.8654 10.2308C16.7599 10.1253 16.6169 10.0661 16.4677 10.0661ZM4.78869 6.80994H1.53369C1.38451 6.80994 1.24143 6.8692 1.13594 6.97469C1.03045 7.08018 0.971191 7.22326 0.971191 7.37244V10.6274C0.971191 10.7766 1.03045 10.9197 1.13594 11.0252C1.24143 11.1307 1.38451 11.1899 1.53369 11.1899H4.78869C4.93788 11.1899 5.08095 11.1307 5.18644 11.0252C5.29193 10.9197 5.35119 10.7766 5.35119 10.6274V7.37244C5.35119 7.22326 5.29193 7.08018 5.18644 6.97469C5.08095 6.8692 4.93788 6.80994 4.78869 6.80994ZM4.78869 0.408691H1.53369C1.38451 0.408691 1.24143 0.467955 1.13594 0.573444C1.03045 0.678933 0.971191 0.822007 0.971191 0.971191V4.22619C0.971191 4.37538 1.03045 4.51845 1.13594 4.62394C1.24143 4.72943 1.38451 4.78869 1.53369 4.78869H4.78869C4.93788 4.78869 5.08095 4.72943 5.18644 4.62394C5.29193 4.51845 5.35119 4.37538 5.35119 4.22619V0.971191C5.35119 0.822007 5.29193 0.678933 5.18644 0.573444C5.08095 0.467955 4.93788 0.408691 4.78869 0.408691ZM4.78869 13.2112H1.53369C1.38451 13.2112 1.24143 13.2705 1.13594 13.3759C1.03045 13.4814 0.971191 13.6245 0.971191 13.7737V17.0287C0.971191 17.1779 1.03045 17.3209 1.13594 17.4264C1.24143 17.5319 1.38451 17.5912 1.53369 17.5912H4.78869C4.93788 17.5912 5.08095 17.5319 5.18644 17.4264C5.29193 17.3209 5.35119 17.1779 5.35119 17.0287V13.7737C5.35119 13.6245 5.29193 13.4814 5.18644 13.3759C5.08095 13.2705 4.93788 13.2112 4.78869 13.2112ZM16.4677 14.0879H9.39144C9.24226 14.0879 9.09918 14.1472 8.99369 14.2527C8.8882 14.3582 8.82894 14.5013 8.82894 14.6504C8.82894 14.7996 8.8882 14.9427 8.99369 15.0482C9.09918 15.1537 9.24226 15.2129 9.39144 15.2129H16.4677C16.6169 15.2129 16.7599 15.1537 16.8654 15.0482C16.9709 14.9427 17.0302 14.7996 17.0302 14.6504C17.0302 14.5013 16.9709 14.3582 16.8654 14.2527C16.7599 14.1472 16.6169 14.0879 16.4677 14.0879ZM16.4677 16.4666H7.89144C7.74226 16.4666 7.59918 16.5258 7.49369 16.6313C7.3882 16.7368 7.32894 16.8799 7.32894 17.0291C7.32894 17.1783 7.3882 17.3213 7.49369 17.4268C7.59918 17.5323 7.74226 17.5916 7.89144 17.5916H16.4677C16.6169 17.5916 16.7599 17.5323 16.8654 17.4268C16.9709 17.3213 17.0302 17.1783 17.0302 17.0291C17.0302 16.8799 16.9709 16.7368 16.8654 16.6313C16.7599 16.5258 16.6169 16.4666 16.4677 16.4666Z" fill="#222222"/>
</svg>
